<svg width="1280" height="844" viewBox="0 0 1280 844" fill="none" xmlns="http://www.w3.org/2000/svg" role="img" aria-labelledby="title desc">
  <title id="title">QikPoll Interface Preview</title>
  <desc id="desc">Stylized preview of the QikPoll homepage with poll creation and recent public poll features.</desc>
  <rect width="1280" height="844" fill="#ECE2CE"/>
  <g opacity="0.15">
    <path d="M0 70H1280" stroke="#8A7A5E"/>
    <path d="M0 130H1280" stroke="#8A7A5E"/>
    <path d="M0 190H1280" stroke="#8A7A5E"/>
    <path d="M0 250H1280" stroke="#8A7A5E"/>
    <path d="M0 310H1280" stroke="#8A7A5E"/>
    <path d="M0 370H1280" stroke="#8A7A5E"/>
    <path d="M0 430H1280" stroke="#8A7A5E"/>
    <path d="M0 490H1280" stroke="#8A7A5E"/>
    <path d="M0 550H1280" stroke="#8A7A5E"/>
    <path d="M0 610H1280" stroke="#8A7A5E"/>
    <path d="M0 670H1280" stroke="#8A7A5E"/>
    <path d="M0 730H1280" stroke="#8A7A5E"/>
    <path d="M0 790H1280" stroke="#8A7A5E"/>
    <path d="70 0V844" stroke="#8A7A5E"/>
    <path d="130 0V844" stroke="#8A7A5E"/>
    <path d="190 0V844" stroke="#8A7A5E"/>
    <path d="250 0V844" stroke="#8A7A5E"/>
    <path d="310 0V844" stroke="#8A7A5E"/>
    <path d="370 0V844" stroke="#8A7A5E"/>
    <path d="430 0V844" stroke="#8A7A5E"/>
    <path d="490 0V844" stroke="#8A7A5E"/>
    <path d="550 0V844" stroke="#8A7A5E"/>
    <path d="610 0V844" stroke="#8A7A5E"/>
    <path d="670 0V844" stroke="#8A7A5E"/>
    <path d="730 0V844" stroke="#8A7A5E"/>
    <path d="790 0V844" stroke="#8A7A5E"/>
    <path d="850 0V844" stroke="#8A7A5E"/>
    <path d="910 0V844" stroke="#8A7A5E"/>
    <path d="970 0V844" stroke="#8A7A5E"/>
    <path d="1030 0V844" stroke="#8A7A5E"/>
    <path d="1090 0V844" stroke="#8A7A5E"/>
    <path d="1150 0V844" stroke="#8A7A5E"/>
    <path d="1210 0V844" stroke="#8A7A5E"/>
  </g>

  <rect y="6" width="1280" height="64" fill="#DDD3C0"/>
  <rect x="92" y="18" width="34" height="34" rx="3" fill="#252525"/>
  <text x="101" y="41" fill="#F5F5F5" font-family="Arial, sans-serif" font-weight="700" font-size="16">QP</text>
  <text x="136" y="34" fill="#181818" font-family="Arial, sans-serif" font-weight="700" font-size="34">QikPoll</text>
  <text x="136" y="56" fill="#4A4A4A" font-family="Arial, sans-serif" font-size="22">Anonymous polls that just work</text>

  <rect x="872" y="17" width="118" height="36" fill="#F1DFC0" stroke="#282521" stroke-width="2"/>
  <text x="886" y="42" fill="#1A1A1A" font-family="Arial, sans-serif" font-weight="700" font-size="32">＋ New poll</text>

  <rect x="1000" y="17" width="86" height="36" fill="#FF7A00" stroke="#282521" stroke-width="2"/>
  <text x="1015" y="42" fill="#FFFFFF" font-family="Arial, sans-serif" font-weight="700" font-size="30">☼ Light</text>

  <rect x="1088" y="17" width="85" height="36" fill="#ECE4D6" stroke="#282521" stroke-width="2"/>
  <text x="1101" y="42" fill="#4F4A44" font-family="Arial, sans-serif" font-weight="700" font-size="30">◔ Dark</text>

  <rect x="92" y="106" width="1080" height="270" fill="#E4DACB" stroke="#B8AE9F" stroke-width="2"/>
  <text x="120" y="148" fill="#565047" font-family="Arial, sans-serif" font-weight="700" font-size="20" letter-spacing="2">NO SIGNUP. ANONYMOUS. FAST.</text>
  <text x="120" y="236" fill="#131313" font-family="Arial, sans-serif" font-weight="800" font-size="58">Launch a vote in under 20 seconds.</text>
  <text x="120" y="292" fill="#4A4A4A" font-family="Arial, sans-serif" font-size="36">QikPoll is built for fast anonymous voting with dependable</text>
  <text x="120" y="336" fill="#4A4A4A" font-family="Arial, sans-serif" font-size="36">one-person voting and shareable links.</text>

  <rect x="120" y="402" width="238" height="48" fill="#F1DFC0" stroke="#2C2924" stroke-width="2"/>
  <text x="138" y="434" fill="#141414" font-family="Arial, sans-serif" font-weight="700" font-size="30">🛡 IP + device checks</text>
  <rect x="368" y="402" width="156" height="48" fill="#F1DFC0" stroke="#2C2924" stroke-width="2"/>
  <text x="382" y="434" fill="#141414" font-family="Arial, sans-serif" font-weight="700" font-size="30">☑ One vote</text>
  <rect x="534" y="402" width="186" height="48" fill="#F1DFC0" stroke="#2C2924" stroke-width="2"/>
  <text x="548" y="434" fill="#141414" font-family="Arial, sans-serif" font-weight="700" font-size="30">🚀 Share links</text>

  <rect x="92" y="402" width="648" height="422" fill="#E9E1D2" stroke="#B8AE9F" stroke-width="2"/>
  <text x="114" y="442" fill="#202020" font-family="Arial, sans-serif" font-weight="700" font-size="36">Poll question</text>
  <rect x="114" y="454" width="604" height="48" fill="#EBE8E1" stroke="#2B2B2B" stroke-width="2"/>
  <text x="128" y="485" fill="#8A8A8A" font-family="Arial, sans-serif" font-size="30">What should we ship first?</text>

  <text x="114" y="548" fill="#202020" font-family="Arial, sans-serif" font-weight="700" font-size="34">Listing</text>
  <rect x="114" y="560" width="192" height="46" fill="#FF7A00" stroke="#2B2B2B" stroke-width="2"/>
  <text x="130" y="592" fill="#FFFFFF" font-family="Arial, sans-serif" font-weight="700" font-size="32">◉ Public</text>
  <rect x="206" y="560" width="100" height="46" fill="#F1DFC0" stroke="#2B2B2B" stroke-width="2"/>
  <text x="220" y="592" fill="#161616" font-family="Arial, sans-serif" font-weight="700" font-size="32">Private</text>

  <text x="114" y="654" fill="#202020" font-family="Arial, sans-serif" font-weight="700" font-size="34">Option 1</text>
  <rect x="114" y="666" width="562" height="48" fill="#EBE8E1" stroke="#2B2B2B" stroke-width="2"/>
  <text x="128" y="698" fill="#8A8A8A" font-family="Arial, sans-serif" font-size="30">Choice 1</text>
  <rect x="686" y="666" width="32" height="48" fill="#EADCC4" stroke="#6C6A66" stroke-width="2"/>
  <text x="697" y="698" fill="#6C6A66" font-family="Arial, sans-serif" font-size="26">×</text>

  <text x="114" y="758" fill="#202020" font-family="Arial, sans-serif" font-weight="700" font-size="34">Option 2</text>
  <rect x="114" y="770" width="562" height="48" fill="#EBE8E1" stroke="#2B2B2B" stroke-width="2"/>
  <text x="128" y="802" fill="#8A8A8A" font-family="Arial, sans-serif" font-size="30">Choice 2</text>
  <rect x="686" y="770" width="32" height="48" fill="#EADCC4" stroke="#6C6A66" stroke-width="2"/>
  <text x="697" y="802" fill="#6C6A66" font-family="Arial, sans-serif" font-size="26">×</text>

  <rect x="758" y="402" width="414" height="422" fill="#E9E1D2" stroke="#B8AE9F" stroke-width="2"/>
  <text x="778" y="444" fill="#1E1E1E" font-family="Arial, sans-serif" font-weight="700" font-size="42">Why people use QikPoll</text>
  <text x="792" y="498" fill="#4A4A4A" font-family="Arial, sans-serif" font-size="36">Anonymous by default, no account.</text>
  <text x="792" y="546" fill="#4A4A4A" font-family="Arial, sans-serif" font-size="36">Fast poll creation + share links.</text>
  <text x="792" y="594" fill="#4A4A4A" font-family="Arial, sans-serif" font-size="36">Vote protection keeps results fair.</text>
  <text x="792" y="642" fill="#4A4A4A" font-family="Arial, sans-serif" font-size="36">Private polls remain unlisted.</text>
</svg>
